<?xml version="1.0" encoding="UTF-8"?>
<svg version="1.1" xmlns="http://www.w3.org/2000/svg" width="968" height="399">
<path d="M0 0 C0.97453125 0.69029297 0.97453125 0.69029297 1.96875 1.39453125 C5.57209686 3.77184308 7.90059118 3.8658035 12.1015625 3.1171875 C13.39707031 2.82134766 13.39707031 2.82134766 14.71875 2.51953125 C34.74919872 -1.96524439 34.74919872 -1.96524439 39.71875 0.51953125 C39.71875 1.17953125 39.71875 1.83953125 39.71875 2.51953125 C40.46125 2.70515625 41.20375 2.89078125 41.96875 3.08203125 C45.69829563 5.03156647 47.26498296 7.69464685 48.71875 11.51953125 C49.45630938 16.59025201 48.35241857 20.09672562 46.27734375 24.625 C41.34767856 30.61719954 33.37483198 31.8811784 26.21484375 33.5859375 C21.55327326 34.77294786 18.01330955 35.81240435 14.71875 39.51953125 C13.31844631 42.51651347 12.36836485 45.60897508 11.40625 48.76953125 C4.4741968 69.8945141 -7.66165771 95.79004429 -28.28125 106.51953125 C-35.94994537 110.12670932 -44.46835622 111.04566467 -52.59375 108.33203125 C-59.3028003 105.34718846 -63.31226458 101.22428519 -66.359375 94.5859375 C-69.22144966 85.06590101 -68.12322835 75.19348386 -63.8125 66.30859375 C-63.3071875 65.38820313 -62.801875 64.4678125 -62.28125 63.51953125 C-61.7965625 62.61976563 -61.311875 61.72 -60.8125 60.79296875 C-57.10276916 54.48278933 -52.52929246 49.24997213 -47.45678711 44.02172852 C-44.58019621 41.04331965 -42.24774169 38.16966309 -40.28125 34.51953125 C-59.00982813 43.57804761 -73.60319097 58.3060277 -86.28125 74.51953125 C-87.05855469 75.46828125 -87.83585937 76.41703125 -88.63671875 77.39453125 C-105.84520474 98.84358215 -125.64863479 129.90324846 -123.28125 158.51953125 C-122.25716504 162.42517941 -120.65468432 166.14563302 -117.28125 168.51953125 C-104.61056514 173.36367325 -91.99824628 169.842285 -80.08935547 164.54443359 C-70.41923002 159.99140733 -62.27262703 154.62750776 -54.28125 147.51953125 C-53.4253125 146.90980469 -52.569375 146.30007812 -51.6875 145.671875 C-48.72508143 143.0220493 -47.62426026 140.52305461 -46.03125 136.89453125 C-41.71779462 127.66209628 -35.77532641 119.75795822 -26.28125 115.51953125 C-24.2507069 114.80236071 -22.2091641 114.14589022 -20.15234375 113.5078125 C-15.41916556 111.87856885 -10.83025061 109.89315409 -6.22119141 107.9440918 C-5.51269043 107.64672119 -4.80418945 107.34935059 -4.07421875 107.04296875 C-3.4402417 106.77403809 -2.80626465 106.50510742 -2.15307617 106.22802734 C5.31424774 103.4016058 13.65772805 103.39652277 21.09375 106.26953125 C28.32641704 109.58546646 35.40637457 113.69862012 38.46728516 121.40380859 C40.08378145 126.05270256 41.43034674 130.77068207 42.71875 135.51953125 C43.15703125 134.96007812 43.5953125 134.400625 44.046875 133.82421875 C48.24272052 128.51971486 52.53215544 123.30271273 56.90625 118.14453125 C57.40479492 117.5501123 57.90333984 116.95569336 58.41699219 116.34326172 C63.27502528 110.65080899 68.58863845 106.07507618 75.71875 103.51953125 C80.77852958 103.3087071 84.12693349 105.71563462 87.94921875 108.78515625 C91.71969595 112.4807233 92.85455485 116.57776564 92.96875 121.70703125 C92.78443816 124.5177868 92.60183099 126.87028829 91.71875 129.51953125 C95.63938806 127.40045399 98.29487484 125.05816281 101.21875 121.70703125 C102.00378906 120.81886719 102.78882813 119.93070312 103.59765625 119.015625 C105.19529784 117.13552743 106.68432815 115.24431608 108.15625 113.26953125 C112.53134302 108.57430947 117.87519617 105.68016547 123.78125 103.26953125 C129.82583697 103.78396418 134.28159973 107.97722364 138.28125 112.26953125 C140.67864631 117.68973159 140.83955895 122.61056145 138.6953125 128.17578125 C137.45103834 130.67941168 136.11631806 133.09874371 134.71875 135.51953125 C134.10501272 136.72303171 133.49899092 137.93055225 132.90625 139.14453125 C132.514375 139.92828125 132.1225 140.71203125 131.71875 141.51953125 C132.37875 141.51953125 133.03875 141.51953125 133.71875 141.51953125 C133.904375 140.85953125 134.09 140.19953125 134.28125 139.51953125 C136.04073888 135.84755446 138.41858645 133.27002093 141.16015625 130.2890625 C143.73367817 127.36724438 143.81329322 125.66019965 143.67578125 121.86328125 C143.65451172 120.92226562 143.63324219 119.98125 143.61132812 119.01171875 C143.55876898 117.04780125 143.4940622 115.08416358 143.41601562 113.12109375 C143.27935052 105.65006825 144.27120966 98.37758681 149.42871094 92.60595703 C154.33161122 88.11858114 159.6945998 84.7713633 166.56640625 85.03515625 C171.97181687 86.25161889 176.21395479 90.05433591 180.09375 93.83203125 C183.15802207 98.89986583 184.526459 104.27791964 185.46875 110.08203125 C186.42197618 114.69596638 188.70056044 117.19022442 191.90234375 120.5390625 C197.45400307 126.59216201 199.87855548 132.09587127 199.78125 140.26953125 C199.77222656 141.254375 199.76320313 142.23921875 199.75390625 143.25390625 C199.73650391 144.37539063 199.73650391 144.37539063 199.71875 145.51953125 C206.72081016 142.71870719 210.46385091 138.83114309 215.30224609 133.15039062 C220.56630662 127.08973494 226.1465859 121.2957593 231.71875 115.51953125 C232.22196777 114.9972998 232.72518555 114.47506836 233.24365234 113.93701172 C241.35598535 105.65975922 252.33691092 97.57496821 264.3984375 97.1171875 C270.0019499 98.08884032 274.19796445 101.66607387 277.71875 105.95703125 C279.92069574 111.5995172 280.21274133 116.04579488 277.8671875 121.59765625 C275.26765729 125.94789048 271.22104336 128.65153953 266.90625 131.14453125 C264.33879591 132.75835954 263.816928 133.73222745 262.71875 136.51953125 C262.47895238 138.88175357 262.47895238 138.88175357 262.59375 141.26953125 C262.61179687 142.06875 262.62984375 142.86796875 262.6484375 143.69140625 C262.68324219 144.59632813 262.68324219 144.59632813 262.71875 145.51953125 C265.71656907 146.89683266 265.71656907 146.89683266 268.46875 145.26953125 C271.4562523 143.14184669 272.98649474 140.65421574 274.84375 137.51953125 C284.82733454 121.13509272 300.58949887 110.87698805 318.71875 105.51953125 C319.38390625 105.31972656 320.0490625 105.11992187 320.734375 104.9140625 C329.4110935 103.18896689 338.06906539 104.03119589 345.71875 108.51953125 C352.88080534 113.84364192 352.88080534 113.84364192 354.71875 117.51953125 C354.95883789 116.9275293 355.19892578 116.33552734 355.44628906 115.72558594 C364.01110354 94.81712538 374.54451896 76.1307909 388.71875 58.51953125 C389.42136963 57.64337158 389.42136963 57.64337158 390.13818359 56.74951172 C402.30785214 41.72883288 415.99452674 27.80700732 431.71875 16.51953125 C432.2977002 16.09623535 432.87665039 15.67293945 433.47314453 15.23681641 C449.89395855 3.32756138 471.6501563 -9.10993442 492.71875 -6.48046875 C498.87357662 -5.39146309 503.52083062 -3.06650686 508.78125 0.26953125 C513.32917349 3.0086872 516.02231696 4.29909895 521.23828125 3.1875 C522.05683594 2.96707031 522.87539063 2.74664062 523.71875 2.51953125 C543.63454027 -1.95979874 543.63454027 -1.95979874 550.03125 1.70703125 C554.71117477 4.99215491 556.32649877 7.78241867 557.59375 13.39453125 C557.98140088 17.77416142 556.956005 20.69454689 554.71875 24.51953125 C550.08115763 29.13588274 546.02103075 30.6416585 539.71875 32.08203125 C533.08382715 33.63127479 527.35070455 35.07406347 523 40.76953125 C521.70282603 43.55370953 520.75408977 46.35030551 519.88134766 49.29296875 C515.20758618 64.99846053 507.7838089 80.32747561 496.71875 92.51953125 C495.935 93.57140625 495.15125 94.62328125 494.34375 95.70703125 C486.7751816 103.81621168 476.90550053 109.53842956 465.71875 110.08203125 C457.99638145 109.78425354 451.69889982 106.9186705 446.28125 101.39453125 C440.99244999 94.43795623 440.04084643 86.01224854 441.09765625 77.546875 C443.82747306 64.24116413 452.32566985 52.20427632 462.1796875 43.05078125 C464.76223607 40.48134206 466.68805972 37.53479864 468.71875 34.51953125 C430.72548444 52.73888773 402.951438 95.05929007 388.71875 133.51953125 C385.45031346 143.00677154 383.20783136 154.638009 387.28125 164.20703125 C389.1098185 167.15165708 391.0992369 169.00718079 394.484375 170.12109375 C411.40309485 173.13806827 427.7133404 166.41865109 441.828125 157.5703125 C444.53985362 155.6384018 447.13447873 153.61852952 449.71875 151.51953125 C450.73839844 150.72417969 451.75804687 149.92882812 452.80859375 149.109375 C458.28349835 144.77148805 462.90541677 140.36725838 467.0390625 134.73046875 C476.54711868 122.2152134 490.22447998 113.20098509 504.71875 107.51953125 C505.58113281 107.18050781 506.44351563 106.84148437 507.33203125 106.4921875 C519.89310258 102.14489487 531.20192372 105.3103319 543.48583984 108.89697266 C545.66416626 109.50431273 547.84869069 110.00830826 550.0546875 110.50390625 C553.40017595 111.43122714 555.09834644 112.09016337 557.59375 114.39453125 C558.14804687 114.88695312 558.70234375 115.379375 559.2734375 115.88671875 C562.89306685 119.97592164 563.07443256 123.62361808 562.98828125 128.90234375 C562.58465427 132.82162025 561.3143769 135.92937074 559.71875 139.51953125 C565.11936413 134.52651064 569.12443088 128.61785924 573.37109375 122.64453125 C579.13506351 114.66365005 585.23169185 107.07286576 594.71875 103.51953125 C597.98620611 103.63834784 599.83992912 104.08012081 602.71875 105.51953125 C604.34127492 105.61839478 605.96822273 105.64924292 607.59375 105.64453125 C608.58117187 105.64195312 609.56859375 105.639375 610.5859375 105.63671875 C613.67326572 105.52123266 616.65590689 105.16138324 619.71875 104.76953125 C625.3317014 104.21696091 629.06352403 105.52651653 634.203125 107.6484375 C639.7835735 109.58079777 644.68881976 107.53432042 650.15625 105.95703125 C658.75080957 103.57754575 664.54250396 103.67020695 672.484375 108.0234375 C676.82484793 110.92973319 679.69324009 114.69812517 681.71875 119.51953125 C682.1328125 122.31640625 682.1328125 122.31640625 682.34375 125.26953125 C682.41851563 126.254375 682.49328125 127.23921875 682.5703125 128.25390625 C682.61929688 129.0015625 682.66828125 129.74921875 682.71875 130.51953125 C683.29206055 129.73473389 683.29206055 129.73473389 683.87695312 128.93408203 C704.06112915 101.3356825 704.06112915 101.3356825 710.71875 96.51953125 C711.27304687 96.11734375 711.82734375 95.71515625 712.3984375 95.30078125 C715.7812537 93.07563993 717.57607592 92.51047258 721.65625 92.76953125 C723.1721875 93.14078125 723.1721875 93.14078125 724.71875 93.51953125 C724.71875 94.17953125 724.71875 94.83953125 724.71875 95.51953125 C725.49605469 95.75800781 726.27335938 95.99648437 727.07421875 96.2421875 C730.25406392 97.77809499 730.61061035 98.81096017 732.03125 101.95703125 C734.21138007 105.520377 735.31006774 106.39478939 739.37890625 107.63671875 C742.1938066 108.15440539 745.02408842 108.53388841 747.859375 108.921875 C754.75146085 109.9891717 761.09446959 113.16165395 765.71875 118.51953125 C769.75782447 124.79632011 771.67212087 131.17750604 772.71875 138.51953125 C773.440625 138.18953125 774.1625 137.85953125 774.90625 137.51953125 C777.73572427 136.51349596 779.74770466 136.34975723 782.71875 136.51953125 C782.96625 137.13828125 783.21375 137.75703125 783.46875 138.39453125 C784.96164625 140.93245487 786.12302941 141.26100005 788.71875 142.51953125 C792.09368351 146.24928662 792.2973391 149.04284012 792.125 153.92578125 C791.18975834 159.89693956 787.72872098 163.95550496 783.15625 167.70703125 C775.64232085 172.87023397 767.39316965 175.44345871 758.59375 177.39453125 C752.4812641 178.77146871 748.14229211 180.85396893 743.20703125 184.7109375 C733.4022544 191.83748645 720.85445269 195.83204485 708.71875 194.51953125 C702.30106397 193.24344564 696.53958652 191.20952822 690.7890625 188.09375 C688.68412 187.35345226 688.68412 187.35345226 686.3359375 187.9140625 C682.39687357 190.33041366 680.29913247 193.74532283 677.71875 197.51953125 C676.56924715 199.15511432 675.41950044 200.79052603 674.26953125 202.42578125 C673.68381348 203.26753906 673.0980957 204.10929688 672.49462891 204.9765625 C668.11990647 211.24094371 663.62825384 217.42250691 659.12011719 223.59130859 C657.89118832 225.28226333 656.68220141 226.98767411 655.4765625 228.6953125 C651.17104833 234.53109977 646.82514088 238.50329942 639.71875 240.51953125 C634.81562927 241.01694929 631.11978076 240.19105051 627.21875 237.14453125 C624.04676015 233.8139419 623.54183746 231.40287271 623.40625 226.95703125 C623.36886719 226.17199219 623.33148437 225.38695312 623.29296875 224.578125 C624.54672249 215.57180225 629.66400704 207.91316199 634.46875 200.39453125 C635.07074219 199.43804687 635.67273438 198.4815625 636.29296875 197.49609375 C637.76101066 195.16586849 639.23629002 192.84059975 640.71875 190.51953125 C638.58046275 188.902225 636.44172407 187.33253874 634.21875 185.83203125 C629.08633948 181.08455152 627.28726976 175.34176839 626.71875 168.51953125 C622.51799153 170.68907375 620.39869036 172.98710495 617.78125 176.89453125 C613.8576984 182.4879937 610.12286015 186.78171464 603.71875 189.51953125 C598.13529692 190.30121468 593.42314568 189.80166777 588.71875 186.51953125 C584.84804994 181.60269604 583.56575359 177.92328706 583.65625 171.76953125 C583.66527344 170.9703125 583.67429687 170.17109375 583.68359375 169.34765625 C583.70099609 168.44273437 583.70099609 168.44273437 583.71875 167.51953125 C579.19058933 171.84078124 575.70684013 176.55968246 572.09765625 181.6796875 C568.85347151 185.55246633 565.50917249 187.92272375 560.71875 189.51953125 C558.6328125 189.6875 558.6328125 189.6875 556.34375 189.70703125 C555.59351563 189.72121094 554.84328125 189.73539063 554.0703125 189.75 C551.71875 189.51953125 551.71875 189.51953125 549.25390625 188.39453125 C545.94294881 187.25176628 544.69127087 187.93639426 541.53125 189.33203125 C531.70026001 193.19608347 523.72468022 193.08600143 513.71875 189.51953125 C512.04584863 188.52999662 510.37826161 187.53136078 508.71875 186.51953125 C503.59230372 185.66512354 500.45801637 186.97514184 495.71875 189.01953125 C486.9962216 192.5467288 477.45058963 193.46233316 468.59375 189.76953125 C466.03816762 188.43180614 464.16174247 187.06154728 461.90625 185.20703125 C459.92800832 183.27028608 459.92800832 183.27028608 457.85839844 183.75708008 C455.4613231 184.61126381 453.47296362 185.71091356 451.296875 187.03125 C450.01731934 187.79332764 450.01731934 187.79332764 448.71191406 188.57080078 C447.80666992 189.11075684 446.90142578 189.65071289 445.96875 190.20703125 C428.16205659 200.60400118 407.79377955 208.66349582 386.79296875 204.4296875 C372.69073931 200.25456748 362.91683846 192.21368876 355.71484375 179.390625 C355.22177734 178.46443359 355.22177734 178.46443359 354.71875 177.51953125 C354.1825 177.88304687 353.64625 178.2465625 353.09375 178.62109375 C336.20058391 189.45717068 315.61133072 194.42034908 295.640625 191.18261719 C287.10290924 189.28191704 280.66280222 185.92081826 274.71875 179.51953125 C269.83776362 181.16244643 265.89630779 183.92625963 261.65625 186.76953125 C246.49297062 196.74863037 231.9742191 203.59641934 213.484375 199.8671875 C206.06988299 197.4271075 200.19891119 192.99969244 194.71875 187.51953125 C194.04328125 187.79667969 193.3678125 188.07382812 192.671875 188.359375 C191.77984375 188.72160156 190.8878125 189.08382812 189.96875 189.45703125 C188.64617187 189.99650391 188.64617187 189.99650391 187.296875 190.546875 C179.57143803 193.46147168 170.26737001 194.04764645 162.59765625 190.62109375 C156.69725353 187.16181399 152.20411561 183.24282821 150.171875 176.5859375 C149.4370801 173.23501938 149.02390129 169.93722571 148.71875 166.51953125 C148.17089844 167.05320313 147.62304688 167.586875 147.05859375 168.13671875 C135.44429235 179.05227356 120.59116924 190.66841398 104.09375 191.59375 C98.66477548 191.42409455 94.031569 190.10803632 89.09375 187.89453125 C81.46710853 184.78738102 75.96044024 187.33641342 68.70703125 190.328125 C60.73451328 193.50671059 50.95729553 194.00957673 42.65625 191.6484375 C36.96650296 189.00305206 33.44246413 185.51714758 29.71875 180.51953125 C19.64259801 182.08876804 11.67297189 184.4803015 2.71875 189.51953125 C-7.86955988 195.22945752 -18.28216029 197.35182013 -30.3125 194.90234375 C-37.35074978 192.66829256 -42.15113984 188.72856618 -47.28125 183.51953125 C-47.94125 182.85953125 -48.60125 182.19953125 -49.28125 181.51953125 C-50.16683594 182.14859375 -51.05242187 182.77765625 -51.96484375 183.42578125 C-72.1956921 197.51601115 -96.06614292 208.54103261 -121.28125 204.51953125 C-128.82455305 202.63125954 -135.17245551 199.2927528 -141.28125 194.51953125 C-142.20550781 193.80216797 -142.20550781 193.80216797 -143.1484375 193.0703125 C-153.8314119 183.64555508 -158.1193363 167.94487094 -159.09375 154.26953125 C-161.19121799 112.41236784 -134.75963484 73.98288797 -107.88378906 44.26269531 C-100.25424922 35.96365289 -92.17223194 28.47021603 -83.28125 21.51953125 C-82.28609375 20.70742187 -81.2909375 19.8953125 -80.265625 19.05859375 C-59.22271351 2.07297565 -25.8378758 -16.76807351 0 0 Z M3.96875 136.58203125 C2.19726665 139.32783045 2.3784204 141.32043301 2.71875 144.51953125 C3.37875 145.17953125 4.03875 145.83953125 4.71875 146.51953125 C6.77589832 146.5057026 6.77589832 146.5057026 8.71875 145.51953125 C10.59255446 143.0211253 10.76876932 141.88633959 10.34375 138.76953125 C10.1375 138.02703125 9.93125 137.28453125 9.71875 136.51953125 C6.76869478 135.38806014 6.76869478 135.38806014 3.96875 136.58203125 Z M506.71875 140.51953125 C504.6912811 141.61551776 504.6912811 141.61551776 502.71875 143.26953125 C502.038125 143.800625 501.3575 144.33171875 500.65625 144.87890625 C498.91487814 146.35345501 497.30133974 147.8775944 495.71875 149.51953125 C496.04875 150.50953125 496.37875 151.49953125 496.71875 152.51953125 C504.05340586 147.96538787 504.05340586 147.96538787 509.71875 141.51953125 C508.72875 141.18953125 507.73875 140.85953125 506.71875 140.51953125 Z M225.71875 162.51953125 C225.38875 163.50953125 225.05875 164.49953125 224.71875 165.51953125 C226.03875 165.51953125 227.35875 165.51953125 228.71875 165.51953125 C228.71875 164.52953125 228.71875 163.53953125 228.71875 162.51953125 C227.72875 162.51953125 226.73875 162.51953125 225.71875 162.51953125 Z " fill="#5982BE" transform="translate(170.28125,84.48046875)"/>
<path d="M0 0 C4.54792349 2.73915595 7.24106696 4.0295677 12.45703125 2.91796875 C13.27558594 2.69753906 14.09414063 2.47710937 14.9375 2.25 C34.85329027 -2.22932999 34.85329027 -2.22932999 41.25 1.4375 C45.92992477 4.72262366 47.54524877 7.51288742 48.8125 13.125 C49.20015088 17.50463017 48.174755 20.42501564 45.9375 24.25 C41.29990763 28.86635149 37.23978075 30.37212725 30.9375 31.8125 C24.30257715 33.36174354 18.56945455 34.80453222 14.21875 40.5 C12.92157603 43.28417828 11.97283977 46.08077426 11.10009766 49.0234375 C6.42633618 64.72892928 -0.9974411 80.05794436 -12.0625 92.25 C-12.84625 93.301875 -13.63 94.35375 -14.4375 95.4375 C-22.0060684 103.54668043 -31.87574947 109.26889831 -43.0625 109.8125 C-50.78486855 109.51472229 -57.08235018 106.64913925 -62.5 101.125 C-67.78880001 94.16842498 -68.74040357 85.74271729 -67.68359375 77.27734375 C-64.95377694 63.97163288 -56.45558015 51.93474507 -46.6015625 42.78125 C-44.01901393 40.21181081 -42.09319028 37.26526739 -40.0625 34.25 C-78.05576556 52.46935648 -105.829812 94.78975882 -120.0625 133.25 C-123.33093654 142.73724029 -125.57341864 154.36847775 -121.5 163.9375 C-119.6714315 166.88212583 -117.6820131 168.73764954 -114.296875 169.8515625 C-97.37815515 172.86853702 -81.0679096 166.14911984 -66.953125 157.30078125 C-64.24139638 155.36887055 -61.64677127 153.34899827 -59.0625 151.25 C-58.04285156 150.45464844 -57.02320313 149.65929687 -55.97265625 148.83984375 C-50.49775165 144.5019568 -45.87583323 140.09772713 -41.7421875 134.4609375 C-32.23413132 121.94568215 -18.55677002 112.93145384 -4.0625 107.25 C-3.20011719 106.91097656 -2.33773437 106.57195312 -1.44921875 106.22265625 C11.11185258 101.87536362 22.42067372 105.04080065 34.70458984 108.62744141 C36.88291626 109.23478148 39.06744069 109.73877701 41.2734375 110.234375 C44.61892595 111.16169589 46.31709644 111.82063212 48.8125 114.125 C49.64394531 114.86363281 49.64394531 114.86363281 50.4921875 115.6171875 C54.11181685 119.70639039 54.29318256 123.35408683 54.20703125 128.6328125 C53.80340427 132.552089 52.5331269 135.65983949 50.9375 139.25 C56.33811413 134.25697939 60.34318088 128.34832799 64.58984375 122.375 C70.35381351 114.3941188 76.45044185 106.80333451 85.9375 103.25 C89.20495611 103.36881659 91.05867912 103.81058956 93.9375 105.25 C95.56002492 105.34886353 97.18697273 105.37971167 98.8125 105.375 C99.79992187 105.37242187 100.78734375 105.36984375 101.8046875 105.3671875 C104.89201572 105.25170141 107.87465689 104.89185199 110.9375 104.5 C116.5504514 103.94742966 120.28227403 105.25698528 125.421875 107.37890625 C131.0023235 109.31126652 135.90756976 107.26478917 141.375 105.6875 C149.96955957 103.3080145 155.76125396 103.4006757 163.703125 107.75390625 C168.04359793 110.66020194 170.91199009 114.42859392 172.9375 119.25 C173.3515625 122.046875 173.3515625 122.046875 173.5625 125 C173.63726563 125.98484375 173.71203125 126.9696875 173.7890625 127.984375 C173.83804687 128.73203125 173.88703125 129.4796875 173.9375 130.25 C174.51081055 129.46520264 174.51081055 129.46520264 175.09570312 128.66455078 C195.27987915 101.06615125 195.27987915 101.06615125 201.9375 96.25 C202.49179687 95.8478125 203.04609375 95.445625 203.6171875 95.03125 C207.0000037 92.80610868 208.79482592 92.24094133 212.875 92.5 C214.3909375 92.87125 214.3909375 92.87125 215.9375 93.25 C215.9375 93.91 215.9375 94.57 215.9375 95.25 C216.71480469 95.48847656 217.49210937 95.72695312 218.29296875 95.97265625 C221.47281392 97.50856374 221.82936035 98.54142892 223.25 101.6875 C225.43013007 105.25084575 226.52881774 106.12525814 230.59765625 107.3671875 C233.4125566 107.88487414 236.24283842 108.26435716 239.078125 108.65234375 C245.97021085 109.71964045 252.31321959 112.8921227 256.9375 118.25 C260.97657447 124.52678886 262.89087087 130.90797479 263.9375 138.25 C264.659375 137.92 265.38125 137.59 266.125 137.25 C268.99608922 136.22916828 270.92228721 135.92403105 273.9375 136.25 C274.5975 136.91 275.2575 137.57 275.9375 138.25 C275.81032454 141.84026119 275.40858098 143.70525204 273.0390625 146.4453125 C265.03767192 152.6798345 258.02000517 156.36411117 247.75 156.25 C240.36149458 156.55785439 236.21601608 160.25302933 230.69555664 164.7277832 C225.75499938 168.73066374 221.13320065 171.55698877 214.9375 173.25 C214.31617188 173.435625 213.69484375 173.62125 213.0546875 173.8125 C202.79596014 175.93238462 193.86961196 173.94109188 185.125 168.5 C183.11399259 166.43153523 181.79729459 164.55326786 180.30078125 162.109375 C179.63429565 161.0260791 179.63429565 161.0260791 178.9543457 159.92089844 C178.45100708 159.09380371 178.45100708 159.09380371 177.9375 158.25 C168.32406646 171.22139327 168.32406646 171.22139327 158.875 184.3125 C158.48868408 184.85559814 158.10236816 185.39869629 157.7043457 185.95825195 C157.30948975 186.51343506 156.91463379 187.06861816 156.5078125 187.640625 C134.12240719 219.1117667 134.12240719 219.1117667 128.9375 222.25 C126.1875 222.5625 126.1875 222.5625 123.9375 222.25 C122.9375 221.25 122.9375 221.25 122.67578125 218.6015625 C123.69690465 205.52508671 136.8586651 190.87165019 143.9375 180.25 C144.8088082 178.93634013 145.67992216 177.62255139 146.55078125 176.30859375 C148.3394449 173.61765573 150.13387253 170.93092059 151.9375 168.25 C151.03902344 168.56324219 150.14054687 168.87648437 149.21484375 169.19921875 C143.75938798 170.94834581 138.50620849 172.17321325 133 170.0625 C129.9375 168.25 129.9375 168.25 128.5 166.5625 C126.31319221 157.57229019 129.35835249 151.49712901 133.9609375 143.91796875 C137.93534874 137.6034836 142.10630806 131.47249311 146.625 125.53125 C148.20360322 122.78748726 148.57847363 120.37352939 148.9375 117.25 C136.87025861 117.69693487 127.9197734 125.77251909 119.9375 134.25 C117.18338047 137.82122306 114.7062518 141.53713718 112.23730469 145.30908203 C109.65142284 149.1704195 106.91037967 152.92219016 104.1875 156.6875 C103.64432129 157.44482422 103.10114258 158.20214844 102.54150391 158.98242188 C96.37809251 167.52366336 96.37809251 167.52366336 92.9375 171.25 C88.78763645 171.91397817 87.46322807 171.60048538 83.9375 169.25 C82.84849635 166.28631884 82.66620024 164.86592379 83.94921875 161.953125 C84.50222656 161.14359375 85.05523438 160.3340625 85.625 159.5 C86.26824219 158.54738281 86.91148437 157.59476563 87.57421875 156.61328125 C88.36017698 155.49092332 89.14810367 154.36994245 89.9375 153.25 C90.39979004 152.58790527 90.86208008 151.92581055 91.33837891 151.24365234 C100.13351755 138.65329206 100.13351755 138.65329206 104.265625 133.1484375 C105.21695313 131.86839844 105.21695313 131.86839844 106.1875 130.5625 C106.72890625 129.85738281 107.2703125 129.15226563 107.828125 128.42578125 C109.29772744 125.54349759 109.26918354 123.44027199 108.9375 120.25 C106.98957532 117.89278158 106.98957532 117.89278158 103.4375 117.8125 C93.78414168 118.14297533 85.80473579 124.88290297 79.41455078 131.58007812 C72.63358884 139.24648798 67.00532831 148.01986612 61.46875 156.6015625 C60.89817871 157.47240479 60.32760742 158.34324707 59.73974609 159.24047852 C58.64415245 160.92054825 57.56793503 162.61345819 56.51416016 164.32006836 C52.82146837 169.98000129 52.82146837 169.98000129 48.203125 171.390625 C44.9375 171.25 44.9375 171.25 42.5625 169.4375 C40.9375 167.25 40.9375 167.25 39.9375 165.25 C39.28523437 165.58773437 38.63296875 165.92546875 37.9609375 166.2734375 C29.07974616 170.80572688 22.07024442 173.35108227 11.9375 172.25 C6.58218986 169.81576812 4.07481527 166.04824688 0.9375 161.25 C-4.04235856 161.78836309 -7.54800643 164.13856168 -11.6875 166.75 C-19.09608994 171.36964199 -24.28949054 173.10093398 -33.0625 172.25 C-37.68600498 170.91040833 -40.41006825 169.05695506 -43.4375 165.3125 C-44.84647658 162.65712106 -45.9745766 160.04549013 -47.0625 157.25 C-47.81080078 157.86875 -47.81080078 157.86875 -48.57421875 158.5 C-63.38935055 170.41594084 -80.47692616 179.94980841 -99.0625 184.25 C-99.89007812 184.44207031 -100.71765625 184.63414062 -101.5703125 184.83203125 C-112.37652676 186.64435872 -122.50317712 185.30281126 -131.8125 179.5 C-140.95515345 172.90054945 -144.54415639 164.80503083 -148.0625 154.25 C-152.21957397 119.32831322 -138.61063224 88.16885676 -117.47998047 60.77978516 C-116.01946047 58.92657595 -114.54371656 57.08668825 -113.0625 55.25 C-112.63179199 54.70504883 -112.20108398 54.16009766 -111.75732422 53.59863281 C-105.80547803 46.09142613 -99.24367764 39.23705345 -92.5 32.4375 C-91.70126465 31.62941895 -90.9025293 30.82133789 -90.07958984 29.98876953 C-88.95544678 28.87091064 -88.95544678 28.87091064 -87.80859375 27.73046875 C-87.13497803 27.05910889 -86.4613623 26.38774902 -85.76733398 25.69604492 C-84.0625 24.25 -84.0625 24.25 -82.0625 24.25 C-82.0625 23.59 -82.0625 22.93 -82.0625 22.25 C-80.30625025 20.76417111 -78.47943707 19.36130961 -76.625 18 C-76.08238525 17.59958496 -75.53977051 17.19916992 -74.98071289 16.78662109 C-71.04111478 13.90071052 -67.02081538 11.16199974 -62.90234375 8.5390625 C-61.04714771 7.33803742 -61.04714771 7.33803742 -59.734375 5.80078125 C-44.52950045 -8.30280566 -16.89941238 -10.71722228 0 0 Z M-2.0625 140.25 C-4.0899689 141.34598651 -4.0899689 141.34598651 -6.0625 143 C-6.743125 143.53109375 -7.42375 144.0621875 -8.125 144.609375 C-9.86637186 146.08392376 -11.47991026 147.60806315 -13.0625 149.25 C-12.7325 150.24 -12.4025 151.23 -12.0625 152.25 C-4.72784414 147.69585662 -4.72784414 147.69585662 0.9375 141.25 C-0.0525 140.92 -1.0425 140.59 -2.0625 140.25 Z " fill="#FBA88F" transform="translate(679.0625,84.75)"/>
<path d="M0 0 C0.99 0.495 0.99 0.495 2 1 C0.42025391 2.07314453 0.42025391 2.07314453 -1.19140625 3.16796875 C-20.2779991 16.28832981 -37.92484871 31.4959296 -52 50 C-52.48968262 50.6403418 -52.97936523 51.28068359 -53.48388672 51.94042969 C-73.1591376 77.84308591 -91.03780364 109.50804594 -87.6875 143.13671875 C-86.06355688 154.4608221 -82.35170811 163.92094216 -74 172 C-70.81037071 174.16185985 -67.60980153 175.67098947 -64 177 C-63.34257813 177.24363281 -62.68515625 177.48726562 -62.0078125 177.73828125 C-44.7013874 183.01638185 -25.41707233 175.08831937 -10.27758789 167.04541016 C-1.9705956 162.50632153 5.504264 157.1174578 12.96484375 151.30859375 C16 149 16 149 17 149 C17.08636719 149.56847656 17.17273438 150.13695312 17.26171875 150.72265625 C18.29684904 156.41112453 19.76700571 160.91553182 24 165 C29.79222538 168.78855298 36.04936469 170.85974757 43 170 C52.39833047 167.85286184 61.17279282 164.45588356 68.3359375 157.84375 C71.76382837 155.47136805 73.98756484 155.53455061 78.125 155.5 C85.09588048 155.23320477 90.65606535 153.83564647 97 151 C97.11214844 151.99580078 97.11214844 151.99580078 97.2265625 153.01171875 C98.10275937 159.25479115 98.10275937 159.25479115 101.875 164.0625 C107.32904032 167.444005 112.69356474 167.63952583 119 167 C125.80469585 165.19587315 132.12373938 162.10275117 138.39453125 158.953125 C141.46405843 157.8302395 143.75324671 157.71287216 147 158 C149.86354348 159.66085522 152.34603201 161.43709084 154.8515625 163.59375 C159.23968792 166.46597755 163.99998128 165.83885524 169 165 C190.5413448 157.94163045 208.42559752 138.60672846 222.37915039 121.63549805 C224.17194931 119.8264967 225.59744995 118.8461423 228 118 C231.93322367 119.494625 233.64398562 120.46597843 236 124 C235.78745655 128.50738706 233.93845271 130.4679639 230.8125 133.5625 C225.19739973 139.58124166 219.82316056 146.90476007 219.4375 155.4375 C220.03884643 159.24602741 220.39799437 161.15405635 223 164 C229.43008605 167.44468896 234.92418275 167.55253969 242 166 C248.71939454 163.74060359 254.96617498 160.70257445 261 157 C261.28875 158.2375 261.5775 159.475 261.875 160.75 C262.90487985 165.10663583 262.90487985 165.10663583 265 169 C266.65267949 169.7006231 268.32193196 170.36257559 270 171 C270.75539063 171.35320312 271.51078125 171.70640625 272.2890625 172.0703125 C280.39286996 175.72922222 287.65662916 176.30686059 296.1875 173.625 C308.25729883 168.72859934 319.02911802 160.4456737 329.50439453 152.84765625 C330.17970215 152.36039063 330.85500977 151.873125 331.55078125 151.37109375 C332.14544189 150.93724365 332.74010254 150.50339355 333.3527832 150.05639648 C335 149 335 149 338 148 C338.21914063 148.59167969 338.43828125 149.18335938 338.6640625 149.79296875 C341.1109809 155.89037111 343.62631712 160.06609645 349.91870117 162.84838867 C355.89383848 164.97790261 361.30555398 165.50869249 367.625 165.4375 C368.59066895 165.42847656 369.55633789 165.41945312 370.55126953 165.41015625 C389.15522922 164.96418152 406.2401128 157.43682112 420 145 C421.76890803 148.31268231 422.99346579 151.71495041 424.25 155.25 C427.98206368 164.93817693 432.69525748 171.15126242 442 176 C456.0142829 182.18964161 470.7977152 178.6405116 484.6015625 173.71484375 C497.02702021 168.68014926 508.2491245 161.5746506 518.92578125 153.53125 C521 152 521 152 523 151 C523.21914063 151.67546875 523.43828125 152.3509375 523.6640625 153.046875 C525.72555125 158.84585961 527.21639411 162.16972478 533 165 C540.14427828 167.38142609 546.48530659 166.62957542 553.1875 163.3125 C557.3754546 161.03112395 561.40502948 158.56481439 565.28125 155.78515625 C567 155 567 155 569.03125 155.125 C571.58819217 156.26141874 572.45887734 157.62162818 574 159.9375 C576.0461942 163.00123098 577.48962028 164.74084206 581 166 C590.07211909 167.29796885 596.91766827 164.87107325 605 161 C606.66158911 160.32077702 608.32671562 159.64987814 610 159 C610.66 160.65 611.32 162.3 612 164 C615.30567489 164.85387105 615.30567489 164.85387105 619 165 C622.03038941 162.47662226 624.14766494 159.52189005 626.3203125 156.25390625 C626.93302002 155.34020264 627.54572754 154.42649902 628.17700195 153.48510742 C628.81984131 152.52064697 629.46268066 151.55618652 630.125 150.5625 C652.69558805 117.16804776 652.69558805 117.16804776 668 112 C671.63067207 111.3650947 674.68622758 111.26100301 678 113.125 C679.56349248 116.05654841 679.43940225 117.66504962 679 121 C677.19230747 124.34031825 674.94898677 127.32971409 672.6875 130.375 C671.40575056 132.15328596 670.12450753 133.93193702 668.84375 135.7109375 C668.19921875 136.59620117 667.5546875 137.48146484 666.890625 138.39355469 C664.10821435 142.2294297 661.38844449 146.10650785 658.6875 150 C658.22625732 150.65145996 657.76501465 151.30291992 657.28979492 151.97412109 C655.22506728 154.94401586 653.5633516 157.40725493 653 161 C653.33 161.99 653.66 162.98 654 164 C656.83427931 165.41713966 658.86414502 165.31200572 662 165 C664.04225434 163.43594722 664.04225434 163.43594722 665.625 161.0625 C666.29789063 160.155 666.97078125 159.2475 667.6640625 158.3125 C668.44464252 157.20969984 669.223112 156.10540418 670 155 C670.96592965 153.64567912 671.93208924 152.29152222 672.8984375 150.9375 C676.69479821 145.59183815 680.48180822 140.24022512 684.16015625 134.8125 C691.50850807 124.18983125 700.61010684 115.36663856 713 111 C715.8515625 110.8515625 715.8515625 110.8515625 718 111 C718.9700872 114.09319233 719.22370411 115.51315919 717.84765625 118.5078125 C716.96400391 119.80332031 716.96400391 119.80332031 716.0625 121.125 C715.41667969 122.08535156 714.77085937 123.04570312 714.10546875 124.03515625 C712.06592134 126.90717199 709.97882782 129.73735978 707.875 132.5625 C701.80325051 140.77999397 697.45613032 148.60372182 698 159 C698.41731018 161.35529281 698.41731018 161.35529281 699 163 C707.69862463 166.14631104 714.6381819 164.4967603 723 161 C723 161.66 723 162.32 723 163 C722.34 163 721.68 163 721 163 C720.62294922 164.06734375 720.62294922 164.06734375 720.23828125 165.15625 C718.87459303 168.28800086 717.19167897 170.73356373 715.1875 173.5 C710.95570016 179.46189845 707.04036905 185.60005454 703.1875 191.8125 C702.63666748 192.69550781 702.08583496 193.57851563 701.51831055 194.48828125 C694.79678022 204.50719829 694.79678022 204.50719829 693 216 C696.66293631 216 698.93660796 215.97132809 701.70043945 213.44677734 C705.72154341 208.64459564 709.50589549 203.736607 713.125 198.625 C714.25898727 197.03897146 715.39310568 195.45303669 716.52734375 193.8671875 C717.10081543 193.06249023 717.67428711 192.25779297 718.26513672 191.42871094 C721.05498671 187.523078 723.87246057 183.63749508 726.6875 179.75 C729.76931914 175.49391265 732.84387894 171.23427286 735.86328125 166.93359375 C736.53387573 165.98178223 736.53387573 165.98178223 737.21801758 165.01074219 C738.40970555 163.31591724 739.59571351 161.61710238 740.78125 159.91796875 C743.01848928 156.97568399 745.33047915 154.54262461 748 152 C748.391875 152.886875 748.78375 153.77375 749.1875 154.6875 C752.63993265 160.99711829 757.95038797 165.38112226 764.83984375 167.58984375 C776.16531718 169.7402501 787.06802907 167.40597948 796.6875 161.1875 C798.96033696 159.593668 801.04242103 157.96144979 803.09765625 156.09375 C808.61405062 151.20808675 812.42377767 150.42762886 819.7265625 150.21484375 C828.75125601 149.62253093 836.65965381 145.35428102 843 139 C844.23864167 136.89075083 844.23864167 136.89075083 845 135 C848.39704541 136.40567396 850.04608457 137.8912494 852 141 C853.03281262 146.06078183 852.56289692 150.74761352 850 155.25 C842.60778546 165.48379004 830.70569339 169.25181098 818.875 171.875 C812.7625141 173.25193746 808.42354211 175.33443768 803.48828125 179.19140625 C793.6835044 186.3179552 781.13570269 190.3125136 769 189 C762.58231397 187.72391439 756.82083652 185.68999697 751.0703125 182.57421875 C748.96537 181.83392101 748.96537 181.83392101 746.6171875 182.39453125 C742.67812357 184.81088241 740.58038247 188.22579158 738 192 C736.85049715 193.63558307 735.70075044 195.27099478 734.55078125 196.90625 C733.96506348 197.74800781 733.3793457 198.58976563 732.77587891 199.45703125 C728.40115647 205.72141246 723.90950384 211.90297566 719.40136719 218.07177734 C718.17243832 219.76273208 716.96345141 221.46814286 715.7578125 223.17578125 C711.45229833 229.01156852 707.10639088 232.98376817 700 235 C695.09687927 235.49741804 691.40103076 234.67151926 687.5 231.625 C684.32801015 228.29441065 683.82308746 225.88334146 683.6875 221.4375 C683.65011719 220.65246094 683.61273437 219.86742187 683.57421875 219.05859375 C684.82797249 210.052271 689.94525704 202.39363074 694.75 194.875 C695.35199219 193.91851562 695.95398438 192.96203125 696.57421875 191.9765625 C698.04226066 189.64633724 699.51754002 187.3210685 701 185 C698.86171275 183.38269375 696.72297407 181.81300749 694.5 180.3125 C689.36758948 175.56502027 687.56851976 169.82223714 687 163 C682.79924153 165.1695425 680.67994036 167.4675737 678.0625 171.375 C674.1389484 176.96846245 670.40411015 181.26218339 664 184 C658.41654692 184.78168343 653.70439568 184.28213652 649 181 C645.12929994 176.08316479 643.84700359 172.40375581 643.9375 166.25 C643.94652344 165.45078125 643.95554687 164.6515625 643.96484375 163.828125 C643.98224609 162.92320312 643.98224609 162.92320312 644 162 C639.47183933 166.32124999 635.98809013 171.04015121 632.37890625 176.16015625 C629.13472151 180.03293508 625.79042249 182.4031925 621 184 C618.9140625 184.16796875 618.9140625 184.16796875 616.625 184.1875 C615.87476563 184.20167969 615.12453125 184.21585938 614.3515625 184.23046875 C612 184 612 184 609.53515625 182.875 C606.22419881 181.73223503 604.97252087 182.41686301 601.8125 183.8125 C591.98151001 187.67655222 584.00593022 187.56647018 574 184 C572.32709863 183.01046537 570.65951161 182.01182953 569 181 C563.87355372 180.14559229 560.73926637 181.45561059 556 183.5 C547.2774716 187.02719755 537.73183963 187.94280191 528.875 184.25 C526.31941762 182.91227489 524.44299247 181.54201603 522.1875 179.6875 C520.20925832 177.75075483 520.20925832 177.75075483 518.13964844 178.23754883 C515.7425731 179.09173256 513.75421362 180.19138231 511.578125 181.51171875 C510.29856934 182.27379639 510.29856934 182.27379639 508.99316406 183.05126953 C508.08791992 183.59122559 507.18267578 184.13118164 506.25 184.6875 C488.44330659 195.08446993 468.07502955 203.14396457 447.07421875 198.91015625 C432.97198931 194.73503623 423.19808846 186.69415751 415.99609375 173.87109375 C415.50302734 172.94490234 415.50302734 172.94490234 415 172 C414.46375 172.36351562 413.9275 172.72703125 413.375 173.1015625 C396.48183391 183.93763943 375.89258072 188.90081783 355.921875 185.66308594 C347.38415924 183.76238579 340.94405222 180.40128701 335 174 C330.11901362 175.64291518 326.17755779 178.40672838 321.9375 181.25 C306.77422062 191.22909912 292.2554691 198.07688809 273.765625 194.34765625 C266.35113299 191.90757625 260.48016119 187.48016119 255 182 C254.32453125 182.27714844 253.6490625 182.55429687 252.953125 182.83984375 C252.06109375 183.20207031 251.1690625 183.56429687 250.25 183.9375 C248.92742187 184.47697266 248.92742187 184.47697266 247.578125 185.02734375 C239.85268803 187.94194043 230.54862001 188.5281152 222.87890625 185.1015625 C216.97850353 181.64228274 212.48536561 177.72329696 210.453125 171.06640625 C209.7183301 167.71548813 209.30515129 164.41769446 209 161 C208.45214844 161.53367188 207.90429688 162.06734375 207.33984375 162.6171875 C195.72554235 173.53274231 180.87241924 185.14888273 164.375 186.07421875 C158.94602548 185.9045633 154.312819 184.58850507 149.375 182.375 C141.74835853 179.26784977 136.24169024 181.81688217 128.98828125 184.80859375 C121.01576328 187.98717934 111.23854553 188.49004548 102.9375 186.12890625 C97.24775296 183.48352081 93.72371413 179.99761633 90 175 C79.92384801 176.56923679 71.95422189 178.96077025 63 184 C52.41169012 189.70992627 41.99908971 191.83228888 29.96875 189.3828125 C22.93050022 187.14876131 18.13011016 183.20903493 13 178 C12.34 177.34 11.68 176.68 11 176 C10.11441406 176.6290625 9.22882813 177.258125 8.31640625 177.90625 C-11.9144421 191.9964799 -35.78489292 203.02150136 -61 199 C-68.54330305 197.11172829 -74.89120551 193.77322155 -81 189 C-81.92425781 188.28263672 -81.92425781 188.28263672 -82.8671875 187.55078125 C-93.5501619 178.12602383 -97.8380863 162.42533969 -98.8125 148.75 C-100.90996799 106.89283659 -74.47838484 68.46335672 -47.60253906 38.74316406 C-39.97507092 30.44637514 -31.89924633 22.93653584 -23 16 C-21.92420679 15.14487381 -20.84869601 14.28939219 -19.7734375 13.43359375 C-6.38504845 2.8622631 -6.38504845 2.8622631 0 0 Z " fill="#000000" transform="translate(110,90)"/>
<path d="M0 0 C3.86882056 1.46748366 5.29173197 3.25807955 7 7 C8.36312307 13.0366879 8.22613337 16.48435262 5 22 C0.36240763 26.61635149 -3.69771925 28.12212725 -10 29.5625 C-16.63492285 31.11174354 -22.36804545 32.55453222 -26.71875 38.25 C-28.01592397 41.03417828 -28.96466023 43.83077426 -29.83740234 46.7734375 C-34.51116382 62.47892928 -41.9349411 77.80794436 -53 90 C-53.78375 91.051875 -54.5675 92.10375 -55.375 93.1875 C-62.9435684 101.29668043 -72.81324947 107.01889831 -84 107.5625 C-91.72236855 107.26472229 -98.01985018 104.39913925 -103.4375 98.875 C-108.72630001 91.91842498 -109.67790357 83.49271729 -108.62109375 75.02734375 C-105.89127694 61.72163288 -97.39308015 49.68474507 -87.5390625 40.53125 C-84.95651393 37.96181081 -83.03069028 35.01526739 -81 32 C-118.99326556 50.21935648 -146.767312 92.53975882 -161 131 C-164.26843654 140.48724029 -166.51091864 152.11847775 -162.4375 161.6875 C-160.10931507 165.61263488 -157.26532345 166.68759278 -153 168 C-157.30100748 169.46603189 -159.70906939 168.32717235 -163.6796875 166.43359375 C-169.69475355 162.71721456 -173.14033547 157.74864684 -175 151 C-179.97791113 123.93699019 -163.32939111 94.17913522 -148.5 72.625 C-146.69565958 70.06150286 -144.85724313 67.52536475 -143 65 C-142.36578125 64.13036621 -142.36578125 64.13036621 -141.71875 63.24316406 C-136.40630497 56.00080736 -130.6959338 49.28859143 -124.54296875 42.75390625 C-122.75464377 40.81724094 -121.06127503 38.88966379 -119.39453125 36.85546875 C-116.24566067 33.10045342 -112.77852995 30.10379245 -109 27 C-108.0615625 26.22398438 -107.123125 25.44796875 -106.15625 24.6484375 C-92.52446449 13.63665877 -75.37202327 2.05680523 -57 4 C-54.21621843 4.67988511 -52.53183393 5.50156767 -50 7 C-49.30859375 9.61328125 -49.30859375 9.61328125 -49 12 C-54.5363102 16.68840684 -60.06309468 21.34077284 -65.88549805 25.67041016 C-79.36905061 35.73057171 -93.01769615 48.42171462 -98 65 C-98.79385887 71.01661463 -98.89663069 76.07390444 -96.3125 81.625 C-92.75042388 85.28334845 -90.06968556 87.14562572 -84.9375 87.5625 C-77.18833668 87.27788966 -69.73576721 82.99903482 -64.1875 77.75 C-63.09235863 76.52849616 -62.02985966 75.27702597 -61 74 C-60.46375 73.34 -59.9275 72.68 -59.375 72 C-49.11011921 58.31349228 -41.10577692 41.73493183 -38 24.875 C-36.93713961 19.80743352 -34.36977755 17.62828267 -30.15234375 14.73046875 C-21.6385879 9.76035731 -11.58263392 8.64453062 -2 7 C-1.34 4.69 -0.68 2.38 0 0 Z " fill="#000000" transform="translate(720,87)"/>
<path d="M0 0 C4.51790439 2.19789943 6.27516103 4.27938809 8 9 C8.65853033 14.08009113 7.63513881 17.57398597 5.55859375 22.10546875 C0.62892856 28.09766829 -7.34391802 29.36164715 -14.50390625 31.06640625 C-19.16547674 32.25341661 -22.70544045 33.2928731 -26 37 C-27.40030369 39.99698222 -28.35038515 43.08944383 -29.3125 46.25 C-36.2445532 67.37498285 -48.38040771 93.27051304 -69 104 C-76.66869537 107.60717807 -85.18710622 108.52613342 -93.3125 105.8125 C-100.0215503 102.82765721 -104.03101458 98.70475394 -107.078125 92.06640625 C-109.94019966 82.54636976 -108.84197835 72.67395261 -104.53125 63.7890625 C-104.0259375 62.86867187 -103.520625 61.94828125 -103 61 C-102.5153125 60.10023438 -102.030625 59.20046875 -101.53125 58.2734375 C-97.82151916 51.96325808 -93.24804246 46.73044088 -88.17553711 41.50219727 C-85.29894621 38.5237884 -82.96649169 35.65013184 -81 32 C-99.72857813 41.05851636 -114.32194097 55.78649645 -127 72 C-127.77730469 72.94875 -128.55460937 73.8975 -129.35546875 74.875 C-146.56395474 96.3240509 -166.36738479 127.38371721 -164 156 C-162.94640268 160.01820219 -161.24239505 163.32149974 -158 166 C-157.34 166.66 -156.68 167.32 -156 168 C-162.13111302 167.41608447 -165.92062842 165.1387822 -170.1875 160.75 C-174.26560657 154.56252797 -175.54041378 148.70289392 -175.4375 141.4375 C-175.42775146 140.65157471 -175.41800293 139.86564941 -175.40795898 139.0559082 C-174.65342574 113.75218812 -159.30269895 88.17566559 -145 68 C-144.57380371 67.39720215 -144.14760742 66.7944043 -143.70849609 66.17333984 C-136.68399715 56.31426355 -129.03836618 47.3164409 -120.59716797 38.64404297 C-119.1675454 37.17246266 -117.7563235 35.68305831 -116.34765625 34.19140625 C-101.79022773 19.06772443 -82.59198376 5.11695135 -61.0625 3.75 C-56.71038855 3.82532501 -53.75767102 4.77607225 -50 7 C-49.30859375 9.61328125 -49.30859375 9.61328125 -49 12 C-53.56913256 16.16881581 -58.3108995 20.02974322 -63.25 23.75 C-78.11518261 35.0539352 -91.92886538 47.78659613 -98 66 C-98.50924563 72.23825899 -98.71456604 77.69347708 -95 83 C-91.25631005 86.39271902 -87.51144522 87.48637755 -82.44140625 87.40234375 C-71.61635655 85.61837556 -63.74177673 78.16994343 -57.53515625 69.6796875 C-47.4471421 55.39388675 -41.31899436 40.12635064 -37.046875 23.23046875 C-35.51430917 18.50124509 -33.1427849 16.57989312 -29 14 C-21.93539151 10.51342138 -14.74844615 9.33556164 -6.96875 8.4921875 C-3.82447802 8.17992192 -3.82447802 8.17992192 -1 6 C-0.26656572 2.93443402 -0.26656572 2.93443402 0 0 Z " fill="#000000" transform="translate(211,87)"/>
<path d="M0 0 C0.99 0.495 0.99 0.495 2 1 C1.31035156 1.49628906 0.62070312 1.99257812 -0.08984375 2.50390625 C-5.57180566 6.46686088 -10.96610853 10.49153096 -16.22265625 14.75 C-18 16 -18 16 -20 16 C-20 16.66 -20 17.32 -20 18 C-21.22265625 19.19921875 -21.22265625 19.19921875 -23.0625 20.6875 C-33.30244116 29.41244095 -43.06349315 39.12404616 -51 50 C-51.42812988 50.57347168 -51.85625977 51.14694336 -52.29736328 51.73779297 C-68.79810285 73.90271242 -85.49577651 100.42883566 -86.125 128.9375 C-86.5038896 132.82111843 -88.0469593 134.49251531 -90.875 137.125 C-104.36479086 147.86133672 -121.16124925 157.51175854 -139 156 C-144.35731003 155.18737432 -148.01189178 153.86725646 -152 150 C-153.39935013 147.20129973 -153.25265405 145.09501208 -153 142 C-151.9921875 140.39453125 -151.9921875 140.39453125 -150 139 C-147.26494278 138.4176975 -144.63914 137.98100753 -141.875 137.625 C-127.26999424 135.45416573 -110.76338143 132.66468063 -101.09375 120.55078125 C-98.5291211 116.91450385 -98.40316164 113.31738915 -99 109 C-100.10769138 106.42183623 -101.43260501 104.35109248 -103 102 C-99.16973565 103.01389351 -97.28208929 104.61320782 -94.8203125 107.58984375 C-94.28937988 108.22656006 -93.75844727 108.86327637 -93.21142578 109.51928711 C-92.81165527 110.00792236 -92.41188477 110.49655762 -92 111 C-91.75991211 110.40799805 -91.51982422 109.81599609 -91.27246094 109.20605469 C-82.70764646 88.29759413 -72.17423104 69.61125965 -58 52 C-57.53158691 51.41589355 -57.06317383 50.83178711 -56.58056641 50.22998047 C-40.28923669 30.12205144 -21.66118749 13.9857247 0 0 Z " fill="#000000" transform="translate(617,91)"/>
<path d="M0 0 C0.66 0.33 1.32 0.66 2 1 C1.505 1.99 1.01 2.98 0.5 4 C-2.21831326 10.50314176 -1.38485712 15.35967864 1.0625 21.75 C1.44535156 22.65234375 1.82820313 23.5546875 2.22265625 24.484375 C3.0784106 27.25375087 3.1431917 28.36568869 2 31 C0.6875 32.53515625 0.6875 32.53515625 -1 34.0625 C-4.00794793 36.9301177 -6.60907801 39.92807402 -9.1875 43.1875 C-19.45618198 55.88364251 -31.67529685 68.71811065 -48 73 C-51.296875 72.75 -51.296875 72.75 -54 72 C-55.7998086 68.40038279 -54.996793 64.7408381 -54 61 C-50.21957764 53.71258206 -44.22365649 47.76906552 -38.6484375 41.82421875 C-28.30802696 31.76462544 -28.30802696 31.76462544 -23 19 C-18.72316502 20.52744106 -16.99962349 23.00075302 -15 27 C-13.53111075 34.81610795 -16.15750199 40.34424453 -20 47 C-20.61373728 48.20350046 -21.21975908 49.411021 -21.8125 50.625 C-22.4003125 51.800625 -22.4003125 51.800625 -23 53 C-22.34 53 -21.68 53 -21 53 C-20.814375 52.34 -20.62875 51.68 -20.4375 51 C-18.67801112 47.32802321 -16.30016355 44.75048968 -13.55859375 41.76953125 C-10.98507183 38.84771313 -10.90545678 37.1406684 -11.04296875 33.34375 C-11.07487305 31.93222656 -11.07487305 31.93222656 -11.10742188 30.4921875 C-11.15998102 28.52827 -11.2246878 26.56463233 -11.30273438 24.6015625 C-11.44056371 17.066892 -10.48272005 9.68120776 -5.10229492 3.99414062 C-3.45673214 2.5557101 -1.7971946 1.24188166 0 0 Z " fill="#000000" transform="translate(325,173)"/>
<path d="M0 0 C2.75044235 0.61120941 4.50968415 1.3452012 6.22265625 3.6328125 C9.35012896 9.34969811 9.78459966 14.07700171 8.5 20.5 C8.335 20.995 8.17 21.49 8 22 C11.92063806 19.88092274 14.57612484 17.53863156 17.5 14.1875 C18.27859375 13.30320313 19.0571875 12.41890625 19.859375 11.5078125 C21.52913947 9.55162858 23.15128979 7.5760654 24.75 5.5625 C27.00909437 2.98964252 28.89432696 1.42693086 32 0 C32.99 0.495 32.99 0.495 34 1 C33.20078125 1.92039063 32.4015625 2.84078125 31.578125 3.7890625 C31.05379883 4.39347168 30.52947266 4.99788086 29.98925781 5.62060547 C28.8122543 6.97703427 27.63449819 8.33281033 26.45605469 9.68798828 C23.63088183 12.94183403 20.81786813 16.20235175 18.0625 19.515625 C-9.91040018 53.05490869 -9.91040018 53.05490869 -25.20703125 56.78125 C-28 57 -28 57 -31 56 C-32.80088226 52.39823548 -31.98258643 48.74611078 -31 45 C-26.26464337 35.43063347 -18.79886081 27.38661511 -11.86328125 19.37109375 C-11.32662842 18.74952393 -10.78997559 18.1279541 -10.23706055 17.48754883 C-9.18677637 16.27406739 -8.13243963 15.06407799 -7.07348633 13.8581543 C-1.61591989 7.77309373 -1.61591989 7.77309373 0 0 Z " fill="#000000" transform="translate(254,192)"/>
<path d="M0 0 C2.07261215 1.57232645 2.91029368 2.3769712 3.28515625 4.98046875 C2.62422776 11.53177745 0.2954351 15.13123352 -4 20 C-4.6290625 20.78246094 -5.258125 21.56492188 -5.90625 22.37109375 C-10.16909444 27.46901033 -14.75240811 31.57773189 -20.125 35.4375 C-20.69863281 35.8504834 -21.27226563 36.2634668 -21.86328125 36.68896484 C-28.13191304 41.03002822 -34.29986234 43.75160846 -42 44 C-44.9375 43 -44.9375 43 -47 41 C-48.50959501 36.18816591 -48.07749711 32.60419689 -46.1171875 28.09375 C-39.10201809 14.9464395 -24.24934179 4.32227621 -10.25 -0.4375 C-6.4848129 -1.089167 -3.70441585 -0.92610396 0 0 Z M-19 26 C-21.0274689 27.09598651 -21.0274689 27.09598651 -23 28.75 C-23.680625 29.28109375 -24.36125 29.8121875 -25.0625 30.359375 C-26.80387186 31.83392376 -28.41741026 33.35806315 -30 35 C-29.67 35.99 -29.34 36.98 -29 38 C-21.66534414 33.44585662 -21.66534414 33.44585662 -16 27 C-16.99 26.67 -17.98 26.34 -19 26 Z " fill="#000000" transform="translate(696,199)"/>
<path d="M0 0 C0.66 0.33 1.32 0.66 2 1 C1.27296875 1.969375 0.5459375 2.93875 -0.203125 3.9375 C-0.68257568 4.57727783 -1.16202637 5.21705566 -1.65600586 5.8762207 C-2.73297369 7.31113312 -3.81196613 8.74452787 -4.89282227 10.17651367 C-7.64738 13.83160756 -10.37029707 17.50042038 -13.01171875 21.23828125 C-22.36261573 34.35230604 -34.2698668 46.75662227 -50 52 C-52.7635072 52.28455916 -55.19366639 52.17817991 -58 52 C-60 49 -60 49 -60.00390625 47.125 C-57.86599223 36.83274134 -51.61655919 28.95743388 -44 22 C-43.13375 21.13375 -42.2675 20.2675 -41.375 19.375 C-39.71793128 17.71793128 -38.00371293 16.11692737 -36.25 14.5625 C-33.67857318 11.63393057 -33.26739047 9.83259671 -33 6 C-28.72316502 7.52744106 -26.99962349 10.00075302 -25 14 C-23.98851537 20.64689901 -25.30756054 25.94201122 -28 32 C-22.59938587 27.00697939 -18.59431912 21.09832799 -14.34765625 15.125 C-5.359375 2.6796875 -5.359375 2.6796875 0 0 Z " fill="#000000" transform="translate(758,192)"/>
<path d="M0 0 C6.56920833 3.46708218 9.19748373 7.71951417 11.3671875 14.60546875 C11.97903751 16.92067896 12.36655692 19.20065378 12.75 21.5625 C13.70322618 26.17643513 15.98181044 28.67069317 19.18359375 32.01953125 C24.73525307 38.07263076 27.15980548 43.57634002 27.0625 51.75 C27.05347656 52.73484375 27.04445313 53.7196875 27.03515625 54.734375 C27.02355469 55.48203125 27.01195312 56.2296875 27 57 C34.00206016 54.19917594 37.74510091 50.31161184 42.58349609 44.63085938 C64.61958985 19.26010683 64.61958985 19.26010683 75 14 C75.99 14.495 75.99 14.495 77 15 C76.40574219 15.52207031 75.81148438 16.04414063 75.19921875 16.58203125 C67.31517421 23.58325898 59.52767216 30.76928249 52.6875 38.8125 C41.30706764 52.03987604 24.85536788 70.71197888 6.9375 74 C5.968125 74 4.99875 74 4 74 C3.34 73.34 2.68 72.68 2 72 C2.18790117 66.39651866 3.72487804 63.45383138 7.25 59.1875 C12.11124984 52.98494838 16.37443312 47.17044587 17.5625 39.25 C16.6705206 34.09634122 14.7204739 31.30198025 10.54296875 28.140625 C8.7609327 26.90671162 6.96182378 25.69699818 5.14453125 24.515625 C3 23 3 23 2 21 C1.97974528 19.3333262 2.00807403 17.66590805 2.0625 16 C2.12856414 10.44327193 1.30829166 5.38502193 0 0 Z " fill="#000000" transform="translate(343,173)"/>
<path d="M0 0 C3.86004124 1.46415357 5.26672267 3.2858343 7 7 C8.30057059 11.92358866 8.09762385 15.46445457 6.1484375 20.078125 C3.54890729 24.42835923 -0.49770664 27.13200828 -4.8125 29.625 C-7.37995409 31.23882829 -7.901822 32.2126962 -9 35 C-9.23979762 37.36222232 -9.23979762 37.36222232 -9.125 39.75 C-9.09792969 40.94882813 -9.09792969 40.94882813 -9.0703125 42.171875 C-9.03550781 43.07679688 -9.03550781 43.07679688 -9 44 C-6.00218093 45.37730141 -6.00218093 45.37730141 -3.25 43.75 C-0.2624977 41.62231544 1.26774474 39.13468449 3.125 36 C9.17085092 26.00829506 17.88772327 17.82221993 28 12 C28.66 12.33 29.32 12.66 30 13 C28.948125 13.78310547 28.948125 13.78310547 27.875 14.58203125 C19.86830112 20.79375008 14.28047934 27.42318513 9.125 36.1875 C4.08965543 42.85192663 -3.25072903 47.97909776 -11 51 C-13.75 51.3125 -13.75 51.3125 -16 50 C-21.29741652 41.57066493 -21.71643825 31.69219287 -21 22 C-19.29126036 16.57223879 -15.76821038 12.98233085 -11 10 C-7.72073471 8.72366788 -4.42763938 7.78621909 -1 7 C-0.67 4.69 -0.34 2.38 0 0 Z " fill="#000000" transform="translate(442,186)"/>
<path d="M0 0 C0.66 0.33 1.32 0.66 2 1 C1.64397705 1.48130371 1.2879541 1.96260742 0.92114258 2.45849609 C-5.18454501 10.71723679 -11.28366166 18.97934524 -17.27880859 27.31884766 C-19.40181764 30.27056144 -21.53594259 33.21414728 -23.67089844 36.15722656 C-24.77447073 37.68730806 -25.86199519 39.22894897 -26.9453125 40.7734375 C-33.85284532 50.28380877 -46.21481486 61.86767351 -57.81640625 64.68359375 C-58.89728516 64.84021484 -58.89728516 64.84021484 -60 65 C-60.75997518 62.31193965 -61.22936987 60.6183528 -60.2421875 57.95703125 C-55.96364647 51.24583403 -51.32700872 44.81034999 -46.58349609 38.42114258 C-40.8978405 30.70657041 -37.21893063 24.24855498 -38.4375 14.5 C-38.623125 13.675 -38.80875 12.85 -39 12 C-33.81210586 14.37160875 -31.2179207 17.88811594 -29 23 C-28.56152344 25.84570312 -28.56152344 25.84570312 -28.359375 28.78125 C-28.28686523 29.76158203 -28.21435547 30.74191406 -28.13964844 31.75195312 C-28.09356445 32.49380859 -28.04748047 33.23566406 -28 34 C-27.61779297 33.47680176 -27.23558594 32.95360352 -26.84179688 32.41455078 C-6.94444444 5.20833333 -6.94444444 5.20833333 0 0 Z " fill="#000000" transform="translate(881,181)"/>
<path d="M0 0 C2.59957761 2.24828334 3.79675311 3.95597108 4.45703125 7.34765625 C4.99356319 16.01950978 1.64576823 22.86526937 -3.30078125 29.83203125 C-5.2646803 32.05181291 -7.10654591 33.03937566 -9.875 34.0625 C-14.07801871 33.97843963 -16.83157048 32.62851777 -20 30 C-24.93867584 24.48551443 -27.4412177 19.89470864 -27.34375 12.4140625 C-26.53974136 6.76772912 -23.27950901 3.01838472 -18.9375 -0.4375 C-12.61434792 -3.80087877 -5.93813594 -4.65421466 0 0 Z M-13.75 20.0625 C-15.52148335 22.8082992 -15.3403296 24.80090176 -15 28 C-14.34 28.66 -13.68 29.32 -13 30 C-10.94285168 29.98617135 -10.94285168 29.98617135 -9 29 C-7.12619554 26.50159405 -6.94998068 25.36680834 -7.375 22.25 C-7.58125 21.5075 -7.7875 20.765 -8 20 C-10.95005522 18.86852889 -10.95005522 18.86852889 -13.75 20.0625 Z " fill="#000000" transform="translate(188,201)"/>
<path d="M0 0 C2.04611427 2.03232024 2.55103825 2.85719 2.73828125 5.7265625 C2.1015625 8.78515625 2.1015625 8.78515625 1.05078125 12.1640625 C0.71691406 13.27652344 0.38304687 14.38898438 0.0390625 15.53515625 C-1.55155598 19.43766465 -3.2250946 22.74830825 -7.1484375 24.6328125 C-10.01700587 24.76006877 -12.3128562 24.01649605 -15.07421875 23.2265625 C-25.38231956 20.81077217 -35.78854155 21.95372919 -46.26171875 22.7265625 C-41.39729944 12.25751612 -28.32544749 3.8491433 -17.76171875 -0.2109375 C-12.19673248 -1.82528487 -5.20909095 -2.93292513 0 0 Z " fill="#000000" transform="translate(914.26171875,204.2734375)"/>
<path d="M0 0 C-0.51577008 5.54452837 -1.95009254 9.69829695 -4.5 14.625 C-4.85239746 15.31650146 -5.20479492 16.00800293 -5.56787109 16.72045898 C-10.52398159 26.20280214 -16.60547204 35.24476336 -24 43 C-24.66 43 -25.32 43 -26 43 C-26 43.66 -26 44.32 -26 45 C-30.62443733 48.86942715 -33.80205974 50.75694352 -40 51 C-40.66 50.67 -41.32 50.34 -42 50 C-41.79013707 37.19836141 -32.99207818 28.2993827 -25 19 C-24.26652344 18.13117188 -23.53304687 17.26234375 -22.77734375 16.3671875 C-8.58744266 0 -8.58744266 0 0 0 Z " fill="#000000" transform="translate(164,115)"/>
<path d="M0 0 C-3.31049962 18.39166458 -17.24794798 37.02172873 -32 48 C-35.09171911 49.96745761 -37.34407431 50.29642641 -41 50 C-42 49 -42 49 -42.5 46.1875 C-42.19938011 32.74159224 -25.43293422 16.9505182 -16.28833008 7.93481445 C-5.87731299 -1.99777086 -5.87731299 -1.99777086 0 0 Z " fill="#000000" transform="translate(673,116)"/>
<path d="M0 0 C1.88671875 0.953125 1.88671875 0.953125 3.1171875 3.28125 C3.43300781 4.24546875 3.74882812 5.2096875 4.07421875 6.203125 C4.55955078 7.63398438 4.55955078 7.63398438 5.0546875 9.09375 C6.8579898 15.29101425 8.23943101 21.07861145 5.38671875 27.140625 C1.17682671 31.87675355 -3.38583106 34.11926639 -9.73828125 34.515625 C-14.6919343 34.27648313 -16.76901353 32.53626899 -20.11328125 28.953125 C-21.16432508 27.31816793 -22.17316443 25.65428876 -23.11328125 23.953125 C-24.09251815 22.93278433 -25.08959804 21.92886712 -26.11328125 20.953125 C-25.33984375 20.251875 -24.56640625 19.550625 -23.76953125 18.828125 C-22.71701821 17.87026363 -21.66496675 16.9118949 -20.61328125 15.953125 C-20.06736328 15.45562744 -19.52144531 14.95812988 -18.95898438 14.44555664 C-15.11612944 10.92350541 -11.41943418 7.29579947 -7.83203125 3.51171875 C-5.33311292 1.24565417 -3.43866077 -0.07627344 0 0 Z M-9.11328125 27.953125 C-9.44328125 28.943125 -9.77328125 29.933125 -10.11328125 30.953125 C-8.79328125 30.953125 -7.47328125 30.953125 -6.11328125 30.953125 C-6.11328125 29.963125 -6.11328125 28.973125 -6.11328125 27.953125 C-7.10328125 27.953125 -8.09328125 27.953125 -9.11328125 27.953125 Z " fill="#000000" transform="translate(405.11328125,219.046875)"/>
<path d="M0 0 C1.32 0 2.64 0 4 0 C4.8353125 1.794375 4.8353125 1.794375 5.6875 3.625 C9.85824402 11.83660328 15.40049467 16.01236349 23 21 C22.7734375 22.83203125 22.7734375 22.83203125 22 25 C20.0390625 26.44921875 20.0390625 26.44921875 17.625 27.6875 C16.83351562 28.10386719 16.04203125 28.52023438 15.2265625 28.94921875 C10.18806289 31.32703699 5.49386826 31.65716128 0 31 C-2.93423195 29.20353146 -4.47205355 28.0558929 -6 25 C-6.91679854 15.50136598 -5.29459446 7.94189169 0 0 Z " fill="#000000" transform="translate(146,220)"/>
<path d="M0 0 C0.99 0.33 1.98 0.66 3 1 C2.18208984 1.89138672 2.18208984 1.89138672 1.34765625 2.80078125 C-5.04829746 9.8308637 -11.28902436 17.00018252 -16.95703125 24.63671875 C-23.74587882 33.66547122 -33.16511729 41.30077698 -44 45 C-44.99 44.67 -45.98 44.34 -47 44 C-46.61328125 43.52691406 -46.2265625 43.05382812 -45.828125 42.56640625 C-39.49550117 34.52522797 -35.10625554 26.16744938 -36.25390625 15.6796875 C-37.2369134 10.45469455 -39.14940459 6.46593281 -42 2 C-36.34315556 3.37135623 -32.96100729 7.21112716 -30 12 C-27.8645694 17.17767004 -26.42414214 22.59219757 -25 28 C-24.56171875 27.44054687 -24.1234375 26.88109375 -23.671875 26.3046875 C-19.47602948 21.00018361 -15.18659456 15.78318148 -10.8125 10.625 C-10.31395508 10.03058105 -9.81541016 9.43616211 -9.30175781 8.82373047 C-6.46433049 5.49894437 -3.68602159 2.41604777 0 0 Z " fill="#000000" transform="translate(238,192)"/>
<path d="M0 0 C0.66 0.66 1.32 1.32 2 2 C1.91487459 5.23476569 1.30730346 6.66196619 -0.875 9.0625 C-9.84324373 14.62281111 -22.42606392 18 -33 18 C-32.32820942 12.82898039 -30.50149496 11.00993797 -26.58984375 7.77734375 C-18.75276733 2.39895797 -9.58467219 -2.34291987 0 0 Z " fill="#000000" transform="translate(504,203)"/>
<path d="M0 0 C4.68567896 1.1025127 6.88897077 3.66592022 9.57421875 7.43359375 C12.39042437 12.50276386 15 19.12894588 15 25 C15.99 25.33 16.98 25.66 18 26 C12.01315919 30.61485646 5.88510004 34.73922813 -2 34 C-1.54166667 32.625 -1.08333333 31.25 -0.625 29.875 C-0.35300781 29.04355469 -0.08101562 28.21210938 0.19921875 27.35546875 C0.79331901 25.60794456 1.46955456 23.88789709 2.1875 22.1875 C4.15776938 14.45798168 3.82601034 7.01435229 0 0 Z " fill="#000000" transform="translate(928,198)"/>
<path d="M0 0 C0.99 1.485 0.99 1.485 2 3 C-5.62763007 8.01244262 -12.55231696 12.34467947 -22 11 C-24.22265625 10.17578125 -24.22265625 10.17578125 -26 9 C-26.75 5.875 -26.75 5.875 -27 3 C-18.73976247 -2.95505496 -9.50600416 -3.68600161 0 0 Z " fill="#000000" transform="translate(898,235)"/>
<path d="M0 0 C0.66 0.33 1.32 0.66 2 1 C1.57589844 1.48726562 1.15179688 1.97453125 0.71484375 2.4765625 C-3.05177953 7.0296236 -5.65975721 11.31577388 -8 16.75 C-14.39083958 30.65238343 -29.00904149 38.98032417 -42 46 C-43.07121094 46.59554687 -44.14242187 47.19109375 -45.24609375 47.8046875 C-48 49 -48 49 -51 48 C-50.04480469 47.52691406 -49.08960937 47.05382812 -48.10546875 46.56640625 C-39.46131511 42.18263355 -32.30550768 37.41341598 -25 31 C-24.14148438 30.38898438 -23.28296875 29.77796875 -22.3984375 29.1484375 C-19.44231078 26.50044125 -18.34068375 23.99822409 -16.75 20.375 C-12.88907051 12.05806397 -7.52369485 5.34980559 0 0 Z " fill="#000000" transform="translate(141,201)"/>
<path d="M0 0 C0.66 0.33 1.32 0.66 2 1 C1.19175781 1.60328125 0.38351562 2.2065625 -0.44921875 2.828125 C-1.52867842 3.6353731 -2.60810367 4.44266722 -3.6875 5.25 C-5.27111328 6.43335938 -5.27111328 6.43335938 -6.88671875 7.640625 C-7.91410156 8.41921875 -8.94148437 9.1978125 -10 10 C-10.845625 10.61746094 -11.69125 11.23492187 -12.5625 11.87109375 C-15.62843126 14.54887025 -17.88931164 17.5598489 -20.3125 20.8125 C-24.4656897 26.20985049 -28.54076817 30.87404591 -34 35 C-34.56299805 35.43473633 -35.12599609 35.86947266 -35.70605469 36.31738281 C-37.6692405 37.82914624 -39.64437359 39.32366995 -41.625 40.8125 C-42.25889648 41.29356201 -42.89279297 41.77462402 -43.54589844 42.27026367 C-47.24183121 44.98908301 -50.49948609 46.80217091 -55 48 C-52.13649974 44.98262005 -49.15259622 42.57417821 -45.75 40.1875 C-38.33024369 34.83975011 -32.33325369 29.62167136 -26.8203125 22.31640625 C-19.8210104 13.40956903 -10.20592624 5.10296312 0 0 Z " fill="#000000" transform="translate(664,197)"/>
<path d="M0 0 C4.14107131 2.12344542 6.05264074 4.14077527 8.3125 8.1875 C8.82425781 9.08855469 9.33601562 9.98960937 9.86328125 10.91796875 C10.23839844 11.60503906 10.61351562 12.29210937 11 13 C9.27327966 13.36590746 7.54346345 13.71722195 5.8125 14.0625 C4.84957031 14.25972656 3.88664063 14.45695313 2.89453125 14.66015625 C-0.03610862 15.00423947 -2.16307068 14.74164697 -5 14 C-4.42923685 10.00465792 -3.09958585 7.411827 -1 4 C-0.30420546 1.80869466 -0.30420546 1.80869466 0 0 Z " fill="#000000" transform="translate(896,180)"/>
<path d="M0 0 C2.68342518 1.03311869 5.05435443 2.03397152 7.5 3.5625 C10.05674363 5.03262759 12.10026145 5.58575164 15 6 C12.83842041 7.92140408 11.45140831 8.93055257 8.5625 9.375 C6 9 6 9 4.19921875 7.03125 C3.70035156 6.1959375 3.20148438 5.360625 2.6875 4.5 C2.17574219 3.6646875 1.66398438 2.829375 1.13671875 1.96875 C0.76160156 1.3190625 0.38648438 0.669375 0 0 Z " fill="#000000" transform="translate(166,83)"/>
<path d="M0 0 C2.68342518 1.03311869 5.05435443 2.03397152 7.5 3.5625 C10.05674363 5.03262759 12.10026145 5.58575164 15 6 C12.83842041 7.92140408 11.45140831 8.93055257 8.5625 9.375 C6 9 6 9 4.19921875 7.03125 C3.70035156 6.1959375 3.20148437 5.360625 2.6875 4.5 C2.17574219 3.6646875 1.66398438 2.829375 1.13671875 1.96875 C0.76160156 1.3190625 0.38648438 0.669375 0 0 Z " fill="#000000" transform="translate(675,83)"/>
<path d="M0 0 C1.43791516 0.14168137 2.8753237 0.28851043 4.3125 0.4375 C5.11300781 0.51871094 5.91351562 0.59992188 6.73828125 0.68359375 C9 1 9 1 12 2 C6.68644068 5.0190678 6.68644068 5.0190678 3.75 4.9375 C1.46380055 3.7127503 1.05954299 2.30961784 0 0 Z " fill="#000000" transform="translate(802,192)"/>
</svg>
